<svg xmlns="http://www.w3.org/2000/svg" viewBox="0 0 100 100" width="100" height="100"><path d="M57.293 54.568A7.293 7.293 0 1 1 50 47.277a7.292 7.292 0 0 1 7.293 7.291zm21.674-2.483a1.95 1.95 0 0 1-.125.24C78.34 53.148 66.358 72.5 50 72.5S21.66 53.148 21.158 52.325a1.95 1.95 0 0 1-.125-.24c-.081-.187-1.968-4.623.18-9.875 1.911-4.671 6.298-8.414 13.039-11.125 4.501-1.81 8.787-3.329 15.674-3.584.049-.002.1-.002.148 0 6.888.256 11.173 1.774 15.673 3.584 6.742 2.711 11.129 6.454 13.04 11.125 2.148 5.252.261 9.688.18 9.875zm-7.627 3.671l-4.514-2.405a5.242 5.242 0 0 1-2.297.544 5.293 5.293 0 0 1-5.294-5.295 5.293 5.293 0 0 1 5.294-5.295c2.761 0 5.003 2.123 5.247 4.82l5.22 2.781c.157-.236.275-.418.347-.53.214-.583 1.102-3.4-.289-6.725-1.506-3.599-5.139-6.578-10.799-8.854-4.13-1.661-8.055-3.055-14.255-3.296-6.209.24-9.979 1.576-14.256 3.295-5.659 2.276-9.292 5.255-10.798 8.854-1.385 3.31-.511 6.117-.287 6.728.071.112.188.293.345.527l5.22-2.781c.244-2.698 2.486-4.82 5.247-4.82a5.293 5.293 0 0 1 5.294 5.295 5.293 5.293 0 0 1-5.294 5.295c-.827 0-1.6-.206-2.297-.544l-4.514 2.404C33.17 61.131 40.992 68.5 50 68.5s16.83-7.369 21.34-12.744z"/></svg>